<?xml version="1.0" encoding="UTF-8" standalone="no"?><!DOCTYPE svg PUBLIC "-//W3C//DTD SVG 1.1//EN" "http://www.w3.org/Graphics/SVG/1.1/DTD/svg11.dtd"><svg width="100%" height="100%" viewBox="0 0 2134 2134" version="1.1" xmlns="http://www.w3.org/2000/svg" xmlns:xlink="http://www.w3.org/1999/xlink" xml:space="preserve" xmlns:serif="http://www.serif.com/" style="fill-rule:evenodd;clip-rule:evenodd;stroke-linejoin:round;stroke-miterlimit:2;"><path d="M1748.75,959.583c-22.5,0 -36.25,-5.416 -55.417,-16.666c-306.25,-182.917 -853.75,-226.667 -1208.33,-127.917c-15.417,4.167 -35,11.25 -55.417,11.25c-56.666,0 -100.416,-44.167 -100.416,-101.667c-0,-58.333 36.25,-91.666 75,-102.916c151.25,-44.167 320.833,-65.417 505.416,-65.417c314.167,0 642.917,65.417 883.334,205.417c33.75,19.166 55.416,45.833 55.416,97.083c0.417,59.167 -47.083,100.833 -99.583,100.833m-133.333,327.917c-22.5,0 -37.5,-10 -52.917,-17.917c-268.75,-159.166 -669.583,-223.333 -1026.25,-126.25c-20.833,5.417 -31.667,11.25 -51.25,11.25c-45.833,0 -83.333,-37.5 -83.333,-83.333c-0,-45.833 22.5,-76.667 66.666,-89.167c119.584,-33.75 241.667,-58.333 420.834,-58.333c279.166,-0 548.75,69.167 761.25,195.833c35,20.834 48.75,47.5 48.75,84.584c-0.834,45.833 -36.667,83.333 -83.75,83.333m-115.834,282.083c-17.916,0 -29.166,-5.416 -45.833,-15.416c-268.333,-161.667 -580.833,-168.75 -889.167,-105.417c-16.666,4.167 -38.75,11.25 -51.25,11.25c-41.666,-0 -67.916,-32.917 -67.916,-67.917c-0,-44.166 26.25,-65.416 58.333,-72.083c352.083,-77.917 712.083,-70.833 1019.17,112.5c26.25,16.667 41.666,31.667 41.666,70.833c0,39.167 -30,66.25 -65,66.25" style="fill:#1ed760;fill-rule:nonzero;"/></svg>